<svg width="12" height="13" viewBox="0 0 12 13" fill="none" xmlns="http://www.w3.org/2000/svg">
<path d="M0.1725 1.62492C0.11871 1.67155 0.0754953 1.72912 0.0457468 1.79379C0.0159983 1.85846 0.000401672 1.92874 0 1.99992V12.4999C0 12.6325 0.0526785 12.7597 0.146447 12.8535C0.240215 12.9472 0.367392 12.9999 0.5 12.9999C0.632608 12.9999 0.759785 12.9472 0.853553 12.8535C0.947321 12.7597 1 12.6325 1 12.4999V9.73555C2.67438 8.41305 4.11687 9.12617 5.77812 9.94867C6.80312 10.4555 7.90687 11.0018 9.09062 11.0018C9.96125 11.0018 10.8744 10.7049 11.8294 9.8768C11.8832 9.83017 11.9264 9.7726 11.9561 9.70793C11.9859 9.64326 12.0015 9.57298 12.0019 9.5018V1.99992C12.0016 1.90395 11.9738 1.81007 11.9217 1.7295C11.8695 1.64892 11.7953 1.58505 11.7079 1.54551C11.6204 1.50597 11.5234 1.49243 11.4285 1.50651C11.3336 1.5206 11.2447 1.5617 11.1725 1.62492C9.4225 3.1393 7.94 2.40555 6.22188 1.55492C4.44188 0.672422 2.42375 -0.325703 0.1725 1.62492ZM11 9.26555C9.32562 10.588 7.88313 9.8743 6.22188 9.05242C4.65938 8.28055 2.92125 7.4193 1 8.52742V2.2368C2.67438 0.914297 4.11687 1.62742 5.77812 2.4493C7.34062 3.22117 9.07938 4.08242 11 2.9743V9.26555Z" fill="white"/>
</svg>
