<svg width="16" height="16" viewBox="0 0 16 16" fill="none" xmlns="http://www.w3.org/2000/svg">
<path d="M8.00015 4.62497C7.33264 4.62497 6.68012 4.82291 6.1251 5.19376C5.57009 5.56461 5.13751 6.09171 4.88206 6.70841C4.62662 7.32512 4.55978 8.00371 4.69 8.6584C4.82023 9.31309 5.14167 9.91445 5.61367 10.3865C6.08567 10.8585 6.68704 11.1799 7.34172 11.3101C7.99641 11.4403 8.67501 11.3735 9.29171 11.1181C9.90841 10.8626 10.4355 10.43 10.8064 9.87502C11.1772 9.32 11.3752 8.66748 11.3752 7.99997C11.3742 7.10515 11.0183 6.24725 10.3856 5.61451C9.75288 4.98178 8.89497 4.6259 8.00015 4.62497ZM8.00015 10.25C7.55515 10.25 7.12013 10.118 6.75012 9.87078C6.38011 9.62354 6.09172 9.27214 5.92143 8.86101C5.75113 8.44987 5.70657 7.99748 5.79339 7.56102C5.8802 7.12456 6.0945 6.72365 6.40916 6.40898C6.72383 6.09431 7.12474 5.88002 7.5612 5.7932C7.99766 5.70639 8.45006 5.75094 8.86119 5.92124C9.27233 6.09154 9.62373 6.37993 9.87096 6.74994C10.1182 7.11995 10.2502 7.55496 10.2502 7.99997C10.2502 8.59671 10.0131 9.169 9.59114 9.59096C9.16919 10.0129 8.59689 10.25 8.00015 10.25ZM14.1877 8.15185C14.1905 8.0506 14.1905 7.94935 14.1877 7.8481L15.2367 6.53747C15.2917 6.46866 15.3298 6.38789 15.3479 6.30166C15.3659 6.21544 15.3635 6.12618 15.3408 6.04106C15.1688 5.39461 14.9115 4.77393 14.5758 4.19536C14.5318 4.11965 14.4708 4.05524 14.3975 4.00727C14.3243 3.9593 14.2409 3.92908 14.1539 3.91903L12.4861 3.73341C12.4167 3.66028 12.3464 3.58997 12.2752 3.52247L12.0783 1.85044C12.0682 1.7634 12.0378 1.67993 11.9897 1.60669C11.9416 1.53344 11.8771 1.47245 11.8012 1.42856C11.2225 1.09342 10.6018 0.836417 9.95554 0.664268C9.87038 0.641625 9.78108 0.639309 9.69486 0.657507C9.60863 0.675705 9.52789 0.713907 9.45914 0.769034L8.15203 1.81247C8.05078 1.81247 7.94953 1.81247 7.84828 1.81247L6.53765 0.765518C6.46884 0.710511 6.38807 0.672437 6.30185 0.654362C6.21562 0.636287 6.12636 0.638716 6.04125 0.661455C5.3949 0.83374 4.77426 1.09098 4.19554 1.42646C4.11983 1.47042 4.05542 1.53145 4.00745 1.60469C3.95948 1.67793 3.92927 1.76136 3.91922 1.84833L3.73359 3.51896C3.66047 3.5888 3.59015 3.65911 3.52265 3.72989L1.85062 3.92185C1.76358 3.93197 1.68012 3.96229 1.60687 4.01039C1.53363 4.05849 1.47263 4.12303 1.42875 4.19888C1.0936 4.77766 0.8366 5.3983 0.664451 6.04458C0.641808 6.12975 0.639492 6.21904 0.65769 6.30527C0.675888 6.39149 0.71409 6.47223 0.769217 6.54099L1.81265 7.8481C1.81265 7.94935 1.81265 8.0506 1.81265 8.15185L0.765701 9.46247C0.710694 9.53129 0.67262 9.61206 0.654545 9.69828C0.63647 9.7845 0.6389 9.87377 0.661638 9.95888C0.833616 10.6053 1.09087 11.226 1.42664 11.8046C1.4706 11.8803 1.53163 11.9447 1.60487 11.9927C1.67811 12.0406 1.76154 12.0709 1.84851 12.0809L3.51633 12.2665C3.58617 12.3397 3.65648 12.41 3.72726 12.4775L3.92203 14.1495C3.93216 14.2365 3.96248 14.32 4.01057 14.3933C4.05867 14.4665 4.12322 14.5275 4.19906 14.5714C4.77785 14.9065 5.39848 15.1635 6.04476 15.3357C6.12993 15.3583 6.21922 15.3606 6.30545 15.3424C6.39167 15.3242 6.47242 15.286 6.54117 15.2309L7.84828 14.1875C7.94953 14.1903 8.05078 14.1903 8.15203 14.1875L9.46265 15.2365C9.53147 15.2915 9.61224 15.3296 9.69846 15.3477C9.78469 15.3658 9.87395 15.3633 9.95906 15.3406C10.6055 15.1686 11.2262 14.9114 11.8048 14.5756C11.8805 14.5316 11.9449 14.4706 11.9929 14.3974C12.0408 14.3241 12.071 14.2407 12.0811 14.1537L12.2667 12.4859C12.3398 12.4165 12.4102 12.3462 12.4777 12.275L14.1497 12.0781C14.2367 12.068 14.3202 12.0376 14.3934 11.9896C14.4667 11.9415 14.5277 11.8769 14.5716 11.8011C14.9067 11.2223 15.1637 10.6016 15.3359 9.95536C15.3585 9.8702 15.3608 9.7809 15.3426 9.69468C15.3244 9.60845 15.2862 9.52771 15.2311 9.45896L14.1877 8.15185ZM13.0556 7.69482C13.0676 7.89808 13.0676 8.10187 13.0556 8.30513C13.0472 8.44429 13.0908 8.5816 13.178 8.69044L14.1757 9.93708C14.0612 10.3009 13.9146 10.6539 13.7377 10.9918L12.1486 11.1718C12.0102 11.1871 11.8824 11.2533 11.79 11.3574C11.6547 11.5096 11.5105 11.6538 11.3583 11.7891C11.2542 11.8815 11.188 12.0093 11.1727 12.1477L10.9962 13.7354C10.6583 13.9124 10.3054 14.059 9.94148 14.1734L8.69414 13.1757C8.59433 13.0959 8.47034 13.0525 8.34258 13.0526H8.30883C8.10556 13.0646 7.90178 13.0646 7.69851 13.0526C7.55935 13.0443 7.42204 13.0879 7.3132 13.175L6.06304 14.1734C5.6992 14.0589 5.34625 13.9123 5.00836 13.7354L4.82836 12.1484C4.813 12.01 4.74686 11.8823 4.64273 11.7898C4.49051 11.6545 4.34636 11.5103 4.21101 11.3581C4.11858 11.254 3.99081 11.1878 3.85242 11.1725L2.26476 10.9953C2.08771 10.6574 1.94112 10.3045 1.82672 9.9406L2.82445 8.69325C2.91157 8.58441 2.95517 8.4471 2.94679 8.30794C2.93484 8.10468 2.93484 7.90089 2.94679 7.69763C2.95517 7.55847 2.91157 7.42115 2.82445 7.31231L1.82672 6.06286C1.9412 5.69902 2.0878 5.34607 2.26476 5.00817L3.85172 4.82817C3.9901 4.81281 4.11787 4.74667 4.21031 4.64255C4.34566 4.49033 4.48981 4.34618 4.64203 4.21083C4.74657 4.11833 4.81298 3.99027 4.82836 3.85153L5.00484 2.26458C5.3427 2.08753 5.69565 1.94093 6.05953 1.82653L7.30687 2.82427C7.41571 2.91139 7.55302 2.95499 7.69219 2.94661C7.89545 2.93466 8.09924 2.93466 8.3025 2.94661C8.44166 2.95499 8.57897 2.91139 8.68781 2.82427L9.93726 1.82653C10.3011 1.94102 10.6541 2.08761 10.992 2.26458L11.172 3.85153C11.1873 3.98992 11.2535 4.11769 11.3576 4.21013C11.5098 4.34547 11.654 4.48963 11.7893 4.64185C11.8817 4.74597 12.0095 4.81211 12.1479 4.82747L13.7355 5.00396C13.9126 5.34181 14.0592 5.69477 14.1736 6.05864L13.1759 7.30599C13.0879 7.41574 13.0442 7.55447 13.0535 7.69482H13.0556Z" fill="white"/>
</svg>
