<svg width="241" height="260" viewBox="0 0 241 260" fill="none" xmlns="http://www.w3.org/2000/svg">
<path d="M81.5251 199.37L78.4857 219.224L75.7467 222.74L69.5585 224.654C69.0662 229.248 68.1184 232.948 66.715 235.754C63.6748 240.755 59.0959 245.467 52.9782 249.887C46.9444 254.181 40.5061 257.023 33.6634 258.412C26.6101 259.844 19.8992 259.453 13.5305 257.238C7.26715 255.002 3.05423 251.528 0.891751 246.815C0.685126 240.938 2.28475 233.16 5.69063 223.48C9.07514 213.695 13.1914 205.625 18.0395 199.27L23.1651 212.369C20.7502 215.052 18.3574 218.113 15.9868 221.554C13.6162 224.995 11.8131 227.992 10.5776 230.544C12.7107 232.413 15.8638 233.636 20.0367 234.214C24.1883 234.687 29.0012 234.367 34.4753 233.256C40.1601 232.102 45.1902 230.423 49.5658 228.219C54.0252 225.889 57.6729 223.34 60.509 220.572C58.595 214.384 55.5923 206.882 51.5009 198.067C47.5147 189.23 43.7644 181.826 40.25 175.853C41.8789 170.918 43.961 166.056 46.4962 161.267C49.0314 156.477 51.5378 152.625 54.0152 149.711C55.6878 152.55 58.077 159.19 61.183 169.63C64.2677 179.965 66.8992 190.228 69.0775 200.418L80.0326 196.878L81.5251 199.37Z" fill="white"/>
<path d="M102.442 163.932C106.127 163.184 109.487 163.269 112.523 164.187C115.538 165 117.249 166.407 117.655 168.407C118.702 173.565 118.896 178.842 118.238 184.237C117.558 189.527 116.182 194.355 114.109 198.722C112.12 202.962 109.77 206.235 107.059 208.539C98.921 213.808 87.9484 218.611 74.1411 222.949L78.427 197.087L82.7523 195.716C84.815 195.078 86.3514 194.547 87.3614 194.123C86.4733 192.988 85.9224 191.894 85.7087 190.841C85.2385 188.525 85.3968 184.985 86.1835 180.222C87.0542 175.332 88.2561 172.074 89.7892 170.447C91.1332 168.968 92.8991 167.678 95.0869 166.576C97.3586 165.348 99.8103 164.467 102.442 163.932Z" fill="white"/>
<path d="M166.056 205.721L163.017 225.575L160.277 229.091L145.439 233.747C143.239 223.452 140.159 210.979 136.198 196.328C132.321 181.55 128.681 168.478 125.277 157.111C127.498 152.934 130.119 148.839 133.141 144.828C136.163 140.816 138.988 137.722 141.615 135.544C142.569 137.543 143.505 140.805 144.424 145.332C146.175 153.417 147.861 164.419 149.481 178.34C151.08 192.155 151.94 201.791 152.061 207.247L164.563 203.229L166.056 205.721Z" fill="white"/>
<path d="M222.296 177.369C223.664 191.669 222.775 204.839 219.629 216.877C215.086 219.334 208.594 221.912 200.154 224.612L204.44 198.751C209.575 197.051 213.679 195.395 216.75 193.785C217.048 187.696 217.202 182.513 217.21 178.237L222.296 177.369ZM197.361 154.973L224.372 141.433L224.516 158.339L197.658 170.204L197.361 154.973ZM184.392 117.817C196.153 105.016 210.714 91.9758 228.077 78.6954C227.616 86.6812 225.542 94.5557 221.857 102.319C205.899 113.341 191.711 124.442 179.293 135.623L176.981 133.955C179.49 127.417 181.961 122.037 184.392 117.817ZM204.44 198.751L205.933 201.243L202.893 221.097L200.154 224.612L185.157 229.301C184.127 222.605 182.917 215.835 181.528 208.992C181.207 207.413 180.642 205.171 179.834 202.266C179.371 209.704 178.462 216.027 177.108 221.235C171.808 224.284 165.653 226.903 158.644 229.093L162.93 203.232C168.508 201.551 173.632 199.525 178.302 197.152C174.647 186.165 169.275 175.363 162.187 164.745C163.816 159.81 165.898 154.948 168.433 150.159C170.968 145.369 173.474 141.517 175.952 138.603C177.518 140.916 179.629 146.187 182.286 154.416C185.027 162.519 187.06 169.834 188.385 176.361C189.454 181.625 190.311 186.657 190.957 191.459C191.603 196.26 191.972 199.967 192.064 202.579L204.44 198.751Z" fill="white"/>
<path d="M139.597 57.3838L40.7391 0.410828L54.8822 58.8604L107.659 94.3867L24.9619 156.333L33.0998 170.449C35.2161 166.76 47.7257 148.864 49.9462 146.252L54.8069 140.534L58.6161 147.001C60.5504 150.284 62.9152 156.9 65.7194 166.168L96.4008 135.57L162.004 115.969L189.347 58.8604L240.438 49.0475L174.393 35.3877L139.597 57.3838Z" fill="white"/>
<path d="M147.5 47.1102L106.088 6.46695L102.002 30.3524L139.664 51.5718L105.273 24.4467L138.336 44.8016L108.428 10.973L147.5 47.1102Z" fill="white"/>
<path d="M147.5 47.1101L106.089 6.46692L102.002 30.3523L139.664 51.5718L105.273 24.4467L138.336 44.8015L108.429 10.973L147.5 47.1101Z" fill="white"/>
</svg>
